<?xml version="1.0" standalone="no"?>
<!DOCTYPE svg PUBLIC "-//W3C//DTD SVG 1.1//EN"
"http://www.w3.org/Graphics/SVG/1.1/DTD/svg11.dtd">

<svg width="328" height="365" view_box="0 0 328 365"
xmlns="http://www.w3.org/2000/svg"
xmlns:link="http://www.w3.org/1999/xlink">\n\n<desc>Généré par Mocodo 2.3.7 le Wed, 14 Jul 2021 06:13:06</desc>

<rect id="frame" x="0" y="0" width="328" height="365" fill="#f7f7f7" stroke="none" stroke-width="0"/>

<!-- Association CONTENT -->
<line x1="49" y1="85" x2="158" y2="85" stroke="#e08214" stroke-width="2"/>
<text x="94" y="102.0" fill="#542788" font-family="Verdana" font-size="12">0,N</text>
<line x1="273" y1="85" x2="158" y2="85" stroke="#e08214" stroke-width="2"/>
<text x="201" y="102.0" fill="#542788" font-family="Verdana" font-size="12">1,1</text>
<g id="association-CONTENT">
	<path d="M 181 60 a 14 14 90 0 1 14 14 V 85 h -74 V 74 a 14 14 90 0 1 14 -14" fill="#fdb863" stroke="#fdb863" stroke-width="0"/>
	<path d="M 195 85.0 v 11 a 14 14 90 0 1 -14 14 H 135 a 14 14 90 0 1 -14 -14 V 85.0 H 74" fill="#fee0b6" stroke="#fee0b6" stroke-width="0"/>
	<rect x="121" y="60" width="74" height="50" fill="none" rx="14" stroke="#e08214" stroke-width="2"/>
	<line x1="121" y1="85" x2="195" y2="85" stroke="#e08214" stroke-width="1"/>
	<text x="128" y="77.7" fill="#000000" font-family="Verdana" font-size="12">CONTENT</text>
</g>

<!-- Association HAVE -->
<line x1="273" y1="271" x2="158" y2="271" stroke="#e08214" stroke-width="2"/>
<text x="207" y="288.0" fill="#542788" font-family="Verdana" font-size="12">1,1</text>
<line x1="49" y1="271" x2="158" y2="271" stroke="#e08214" stroke-width="2"/>
<text x="94" y="288.0" fill="#542788" font-family="Verdana" font-size="12">0,N</text>
<g id="association-HAVE">
	<path d="M 168 246 a 14 14 90 0 1 14 14 V 271 h -48 V 260 a 14 14 90 0 1 14 -14" fill="#fdb863" stroke="#fdb863" stroke-width="0"/>
	<path d="M 182 271.0 v 11 a 14 14 90 0 1 -14 14 H 148 a 14 14 90 0 1 -14 -14 V 271.0 H 48" fill="#fee0b6" stroke="#fee0b6" stroke-width="0"/>
	<rect x="134" y="246" width="48" height="50" fill="none" rx="14" stroke="#e08214" stroke-width="2"/>
	<line x1="134" y1="271" x2="182" y2="271" stroke="#e08214" stroke-width="1"/>
	<text x="141" y="263.7" fill="#000000" font-family="Verdana" font-size="12">HAVE</text>
</g>

<!-- Entity BRAND -->
<g id="entity-BRAND">
	<g id="frame-BRAND">
		<rect x="9" y="220" width="80" height="25" fill="#b2abd2" stroke="#b2abd2" stroke-width="0"/>
		<rect x="9" y="245.0" width="80" height="77" fill="#d8daeb" stroke="#d8daeb" stroke-width="0"/>
		<rect x="9" y="220" width="80" height="102" fill="none" stroke="#8073ac" stroke-width="2"/>
		<line x1="9" y1="245" x2="89" y2="245" stroke="#8073ac" stroke-width="1"/>
	</g>
	<text x="27" y="237.7" fill="#000000" font-family="Verdana" font-size="12">BRAND</text>
	<text x="14" y="262.7" fill="#000000" font-family="Verdana" font-size="12">name</text>
	<line x1="14" y1="265" x2="49" y2="265" stroke="#000000" stroke-width="1"/>
	<text x="14" y="279.8" fill="#000000" font-family="Verdana" font-size="12">picture</text>
	<text x="14" y="296.8" fill="#000000" font-family="Verdana" font-size="12">created_at</text>
	<text x="14" y="313.8" fill="#000000" font-family="Verdana" font-size="12">updated_at</text>
</g>

<!-- Entity TREATEMENT -->
<g id="entity-TREATEMENT">
	<g id="frame-TREATEMENT">
		<rect x="227" y="9" width="92" height="25" fill="#b2abd2" stroke="#b2abd2" stroke-width="0"/>
		<rect x="227" y="34.0" width="92" height="127" fill="#d8daeb" stroke="#d8daeb" stroke-width="0"/>
		<rect x="227" y="9" width="92" height="152" fill="none" stroke="#8073ac" stroke-width="2"/>
		<line x1="227" y1="34" x2="319" y2="34" stroke="#8073ac" stroke-width="1"/>
	</g>
	<text x="232" y="26.7" fill="#000000" font-family="Verdana" font-size="12">TREATEMENT</text>
	<text x="232" y="51.7" fill="#000000" font-family="Verdana" font-size="12">name</text>
	<line x1="232" y1="54" x2="267" y2="54" stroke="#000000" stroke-width="1"/>
	<text x="232" y="68.7" fill="#000000" font-family="Verdana" font-size="12">description</text>
	<text x="232" y="85.8" fill="#000000" font-family="Verdana" font-size="12">picture</text>
	<text x="232" y="102.8" fill="#000000" font-family="Verdana" font-size="12">duration</text>
	<text x="232" y="119.8" fill="#000000" font-family="Verdana" font-size="12">price</text>
	<text x="232" y="136.8" fill="#000000" font-family="Verdana" font-size="12">created_at</text>
	<text x="232" y="153.8" fill="#000000" font-family="Verdana" font-size="12">updated_at</text>
</g>

<!-- Entity PRODUCT -->
<g id="entity-PRODUCT">
	<g id="frame-PRODUCT">
		<rect x="233" y="186" width="80" height="25" fill="#b2abd2" stroke="#b2abd2" stroke-width="0"/>
		<rect x="233" y="211.0" width="80" height="145" fill="#d8daeb" stroke="#d8daeb" stroke-width="0"/>
		<rect x="233" y="186" width="80" height="170" fill="none" stroke="#8073ac" stroke-width="2"/>
		<line x1="233" y1="211" x2="313" y2="211" stroke="#8073ac" stroke-width="1"/>
	</g>
	<text x="243" y="203.7" fill="#000000" font-family="Verdana" font-size="12">PRODUCT</text>
	<text x="238" y="228.7" fill="#000000" font-family="Verdana" font-size="12">name</text>
	<line x1="238" y1="231" x2="273" y2="231" stroke="#000000" stroke-width="1"/>
	<text x="238" y="245.7" fill="#000000" font-family="Verdana" font-size="12">subtitle</text>
	<text x="238" y="262.7" fill="#000000" font-family="Verdana" font-size="12">description</text>
	<text x="238" y="279.8" fill="#000000" font-family="Verdana" font-size="12">picture</text>
	<text x="238" y="296.8" fill="#000000" font-family="Verdana" font-size="12">content</text>
	<text x="238" y="313.8" fill="#000000" font-family="Verdana" font-size="12">price</text>
	<text x="238" y="330.8" fill="#000000" font-family="Verdana" font-size="12">created_at</text>
	<text x="238" y="347.8" fill="#000000" font-family="Verdana" font-size="12">updated_at</text>
</g>

<!-- Entity SERVICE -->
<g id="entity-SERVICE">
	<g id="frame-SERVICE">
		<rect x="9" y="26" width="80" height="25" fill="#b2abd2" stroke="#b2abd2" stroke-width="0"/>
		<rect x="9" y="51.0" width="80" height="93" fill="#d8daeb" stroke="#d8daeb" stroke-width="0"/>
		<rect x="9" y="26" width="80" height="118" fill="none" stroke="#8073ac" stroke-width="2"/>
		<line x1="9" y1="51" x2="89" y2="51" stroke="#8073ac" stroke-width="1"/>
	</g>
	<text x="22" y="43.7" fill="#000000" font-family="Verdana" font-size="12">SERVICE</text>
	<text x="14" y="68.7" fill="#000000" font-family="Verdana" font-size="12">title</text>
	<line x1="14" y1="71" x2="38" y2="71" stroke="#000000" stroke-width="1"/>
	<text x="14" y="85.8" fill="#000000" font-family="Verdana" font-size="12">description</text>
	<text x="14" y="102.8" fill="#000000" font-family="Verdana" font-size="12">picture</text>
	<text x="14" y="119.8" fill="#000000" font-family="Verdana" font-size="12">created_at</text>
	<text x="14" y="136.8" fill="#000000" font-family="Verdana" font-size="12">updated_at</text>
</g>
</svg>